Coordinates
version=1
nRows=29
nColumns=22
inDegrees=yes

Units are S.I. units (second, meters, Newtons, ...)
If the header above contains a line with 'inDegrees', this indicates whether rotational values are in degrees (yes) or radians (no).

endheader
time	pelvis_tilt	pelvis_list	pelvis_rotation	pelvis_tx	pelvis_ty	pelvis_tz	hip_flexion_r	hip_adduction_r	hip_rotation_r	knee_angle_r	ankle_angle_r	subtalar_angle_r	hip_flexion_l	hip_adduction_l	hip_rotation_l	knee_angle_l	ankle_angle_l	subtalar_angle_l	lumbar_extension	lumbar_bending	lumbar_rotation
      4.14000000	     -4.28810539	      6.21783185	      1.75998444	     -0.97497858	      1.05132050	     -0.30138512	     -1.25682819	     -4.12467187	     -4.44178631	    -19.78824118	     22.79682109	     -5.82822688	     23.92539134	      6.44032541	      0.65899056	    -14.27817259	      8.81086147	      4.05109271	     -7.75205866	     -8.73617523	     -2.05920466
      4.15000000	     -4.26894878	      6.07380380	      1.72545785	     -0.98246441	      1.05209645	     -0.29988244	     -0.94217642	     -3.89934443	     -4.36493572	    -19.57652008	     22.75150565	     -6.00635435	     23.91609557	      6.08833745	     -0.09444286	    -13.80817009	      9.54917194	      3.95051019	     -7.91858659	     -8.53754251	     -2.16101942
      4.16000000	     -4.24687373	      5.89475266	      1.71665922	     -0.98972623	      1.05301239	     -0.29852347	     -0.61461207	     -3.64741725	     -4.31228993	    -19.41982641	     22.61766427	     -6.13259559	     23.92938364	      5.71549014	     -0.89011678	    -13.48989558	     10.15725005	      3.82486905	     -8.07402203	     -8.29127676	     -2.29531568
      4.17000000	     -4.22464554	      5.68064523	      1.73322383	     -0.99679829	      1.05405273	     -0.29729151	     -0.26818463	     -3.36733593	     -4.28581366	    -19.31956635	     22.40291188	     -6.20513280	     23.98627442	      5.31948370	     -1.70660453	    -13.37013701	     10.60317378	      3.67483163	     -8.21958421	     -8.00488797	     -2.46271747
      4.18000000	     -4.21607443	      5.44754706	      1.78820086	     -1.00367936	      1.05518060	     -0.29622706	      0.09822449	     -3.07855131	     -4.30372533	    -19.25461312	     22.13840810	     -6.21561021	     24.10365620	      4.92186542	     -2.49766640	    -13.46743089	     10.87841106	      3.48948404	     -8.34009665	     -7.68971505	     -2.65738247
      4.19000000	     -4.19399279	      5.21948241	      1.88061439	     -1.01032202	      1.05641264	     -0.29531743	      0.43582088	     -2.80347858	     -4.37544015	    -19.19400584	     21.84074186	     -6.16364675	     24.24197576	      4.54529195	     -3.22445754	    -13.77914509	     11.03265750	      3.27668582	     -8.46187052	     -7.37778308	     -2.87460537
      4.20000000	     -4.14413808	      5.01598486	      1.99795369	     -1.01669159	      1.05774756	     -0.29451727	      0.72004528	     -2.56058727	     -4.50610239	    -19.12081296	     21.51343803	     -6.09151818	     24.37053386	      4.19964260	     -3.88524736	    -14.28192953	     11.08587821	      3.05669968	     -8.59491754	     -7.09831522	     -3.09543010
      4.21000000	     -4.10524832	      4.84041570	      2.13717867	     -1.02290536	      1.05907777	     -0.29382533	      1.01330192	     -2.34545940	     -4.60913720	    -19.06965295	     21.17759547	     -6.00147118	     24.54652407	      3.89195277	     -4.41185727	    -14.99411213	     11.01829187	      2.75768453	     -8.71043503	     -6.85150698	     -3.33510921
      4.22000000	     -4.01273777	      4.71071574	      2.27623418	     -1.02882627	      1.06048544	     -0.29318591	      1.22221769	     -2.17628950	     -4.73387830	    -18.99964030	     20.82658104	     -5.94738905	     24.66121229	      3.62940978	     -4.82205709	    -15.85074796	     10.91619469	      2.48146187	     -8.86515729	     -6.66639806	     -3.52787092
      4.23000000	     -3.89410777	      4.61996950	      2.40599112	     -1.03452587	      1.06189383	     -0.29258285	      1.39211159	     -2.04060730	     -4.82019770	    -18.93485040	     20.47859240	     -5.93561946	     24.73686127	      3.40726830	     -5.08575763	    -16.81855440	     10.77747796	      2.18759500	     -9.03584383	     -6.53107395	     -3.71157345
      4.24000000	     -3.73802061	      4.55268709	      2.51109939	     -1.03997532	      1.06329465	     -0.29199539	      1.50652748	     -1.92137499	     -4.87304368	    -18.86394824	     20.11992977	     -5.98083582	     24.75282677	      3.20873979	     -5.19408761	    -17.87647278	     10.64568386	      1.91148588	     -9.22731305	     -6.42689705	     -3.83888348
      4.25000000	     -3.57007555	      4.50564263	      2.60398319	     -1.04520973	      1.06461755	     -0.29141778	      1.59458343	     -1.81432866	     -4.89647721	    -18.78975061	     19.77545172	     -6.13729098	     24.73288209	      3.03949004	     -5.13836571	    -18.99813911	     10.51344088	      1.55985735	     -9.41539201	     -6.35775252	     -3.93521727
      4.26000000	     -3.37086831	      4.44512973	      2.66139192	     -1.05026712	      1.06587921	     -0.29081435	      1.64872769	     -1.68218420	     -4.86669813	    -18.72532426	     19.40988269	     -6.34079014	     24.65219542	      2.86141438	     -4.91645466	    -20.16049504	     10.42134830	      1.30333672	     -9.62518241	     -6.27992154	     -3.97100907
      4.27000000	     -3.16485154	      4.36133818	      2.68953451	     -1.05516418	      1.06703369	     -0.29019935	      1.69126607	     -1.51678502	     -4.76860378	    -18.66359220	     19.03693065	     -6.52718514	     24.53518709	      2.67328507	     -4.52480193	    -21.34695342	     10.36161619	      1.12311682	     -9.82693745	     -6.18362392	     -3.95739544
      4.28000000	     -2.97543134	      4.26407667	      2.72229406	     -1.05989545	      1.06801835	     -0.28965224	      1.74612676	     -1.34045546	     -4.69884096	    -18.61140524	     18.70398664	     -6.89582147	     24.41660303	      2.50161022	     -3.98520969	    -22.56249790	     10.30351769	      0.86122639	     -9.99287708	     -6.07467059	     -3.92894597
      4.29000000	     -2.79218048	      4.13537981	      2.73484638	     -1.06448770	      1.06887265	     -0.28912131	      1.79977290	     -1.12810235	     -4.57075291	    -18.55626268	     18.37914017	     -7.21701947	     24.27509578	      2.32096765	     -3.30736453	    -23.77929997	     10.27812331	      0.66722961	    -10.13635913	     -5.93511403	     -3.87179736
      4.30000000	     -2.60707258	      3.97922545	      2.73212346	     -1.06892077	      1.06961636	     -0.28863474	      1.84267614	     -0.89112327	     -4.42279062	    -18.50169085	     18.07181307	     -7.45310554	     24.10683441	      2.13269098	     -2.54909963	    -24.99911836	     10.28288146	      0.52857767	    -10.26440391	     -5.76397899	     -3.80619144
      4.31000000	     -2.44183409	      3.80187384	      2.73387100	     -1.07319438	      1.07022979	     -0.28823942	      1.89343005	     -0.64217065	     -4.29725670	    -18.44281130	     17.81387555	     -7.73376722	     23.92691151	      1.95954122	     -1.68074782	    -26.20106684	     10.30368590	      0.38321397	    -10.35136275	     -5.56986843	     -3.72620711
      4.32000000	     -2.30978070	      3.62519632	      2.73851479	     -1.07728504	      1.07070970	     -0.28794724	      1.96777423	     -0.41047890	     -4.22159233	    -18.38534875	     17.59872622	     -8.10417368	     23.74258353	      1.82098660	     -0.74606630	    -27.37019763	     10.34809528	      0.21821416	    -10.37707884	     -5.37745942	     -3.62598240
      4.33000000	     -2.15578464	      3.43195085	      2.71634942	     -1.08119290	      1.07117287	     -0.28768780	      1.99769748	     -0.16507187	     -4.09409494	    -18.30905099	     17.40917801	     -8.29499808	     23.50005409	      1.67144904	      0.16828844	    -28.50992700	     10.41858191	      0.11443830	    -10.40858006	     -5.16317914	     -3.53705132
      4.34000000	     -2.02239457	      3.24180505	      2.70208227	     -1.08489800	      1.07156748	     -0.28753198	      2.03229872	      0.05984627	     -4.02883388	    -18.22564444	     17.24743703	     -8.49450602	     23.23439108	      1.55273563	      1.10593664	    -29.59831605	     10.51555211	      0.01263223	    -10.39361977	     -4.95274935	     -3.44245925
      4.35000000	     -1.89927245	      3.05358371	      2.68450504	     -1.08840259	      1.07192861	     -0.28745632	      2.05814591	      0.27123876	     -3.98195152	    -18.12862386	     17.10663659	     -8.65989114	     22.93550980	      1.45193551	      2.02575908	    -30.63209942	     10.63199796	     -0.07169924	    -10.34591716	     -4.74354802	     -3.35056647
      4.36000000	     -1.78613800	      2.87022493	      2.66442289	     -1.09168239	      1.07226957	     -0.28744243	      2.06148666	      0.47116166	     -3.92795749	    -17.99520315	     16.99691460	     -8.76387484	     22.59962462	      1.36856612	      2.91698925	    -31.60325490	     10.77253577	     -0.13086244	    -10.26338710	     -4.54061419	     -3.26527185
      4.37000000	     -1.67540883	      2.68747684	      2.65323236	     -1.09481576	      1.07260273	     -0.28750713	      2.07495090	      0.65638857	     -3.94712327	    -17.89190091	     16.85763881	     -8.85741894	     22.23034771	      1.30069865	      3.78197710	    -32.51636817	     10.91406565	     -0.15964206	    -10.17050949	     -4.33740849	     -3.20633943
      4.38000000	     -1.58013154	      2.51932084	      2.63823590	     -1.09771755	      1.07292244	     -0.28760970	      2.06363424	      0.82648250	     -3.92526893	    -17.73793359	     16.75576874	     -8.89703476	     21.82846215	      1.25551412	      4.60330946	    -33.35570978	     11.08131222	     -0.16370954	    -10.03865165	     -4.15519864	     -3.16178989
      4.39000000	     -1.48256547	      2.34919410	      2.64189612	     -1.10045153	      1.07325071	     -0.28779760	      2.04339690	      0.98979994	     -3.96121582	    -17.59075963	     16.63068064	     -8.91647108	     21.39032401	      1.22433699	      5.40189845	    -34.13236990	     11.25038146	     -0.12517226	     -9.90209430	     -3.96593712	     -3.15589004
      4.40000000	     -1.38845070	      2.19584052	      2.65252962	     -1.10300347	      1.07358458	     -0.28803983	      2.01127175	      1.13139284	     -4.00789880	    -17.43673240	     16.51738169	     -8.90909590	     20.91629159	      1.21984733	      6.16028679	    -34.83521812	     11.42535853	     -0.04145807	     -9.75271504	     -3.79732723	     -3.17816714
      4.41000000	     -1.30421598	      2.05928234	      2.67442275	     -1.10535542	      1.07391312	     -0.28834521	      1.96184365	      1.25441026	     -4.04789191	    -17.25742096	     16.41964465	     -8.87575822	     20.41676755	      1.24154516	      6.87040507	    -35.46595711	     11.62575834	      0.06959581	     -9.58055489	     -3.64625876	     -3.24001291
      4.42000000	     -1.19740715	      1.94471291	      2.70683801	     -1.10753793	      1.07429919	     -0.28868346	      1.87743651	      1.35114070	     -4.12629499	    -17.07952071	     16.33255592	     -8.78220506	     19.85380145	      1.29160312	      7.54517693	    -36.01167943	     11.80929235	      0.32239907	     -9.43160337	     -3.52643176	     -3.32052571
